{
  "asset": {
    "version": "2.0",
    "generator": "glb-preview make_fixtures.py"
  },
  "buffers": [
    {
      "byteLength": 72,
      "uri": "data:application/octet-stream;base64,"
    }
  ],
  "bufferViews": [
    {
      "buffer": 0,
      "byteOffset": 0,
      "byteLength": 36
    },
    {
      "buffer": 0,
      "byteOffset": 36,
      "byteLength": 36
    }
  ],
  "accessors": [
    {
      "bufferView": 0,
      "componentType": 5126,
      "count": 3,
      "type": "VEC3",
      "max": [
        1,
        1,
        0
      ],
      "min": [
        0,
        0,
        0
      ]
    },
    {
      "bufferView": 1,
      "componentType": 5126,
      "count": 3,
      "type": "VEC3",
      "max": [
        0,
        0,
        1
      ],
      "min": [
        0,
        0,
        0
      ]
    }
  ],
  "meshes": [
    {
      "name": "MorphTri",
      "primitives": [
        {
          "attributes": {
            "POSITION": 0
          },
          "targets": [
            {
              "POSITION": 1
            }
          ]
        }
      ],
      "weights": [
        0
      ],
      "extras": {
        "targetNames": [
          "Blink"
        ]
      }
    }
  ],
  "nodes": [
    {
      "name": "Mesh",
      "mesh": 0
    }
  ],
  "scenes": [
    {
      "name": "Default",
      "nodes": [
        0
      ]
    }
  ],
  "scene": 0
}
